<svg width="37" height="40" viewBox="0 0 37 40" fill="none" xmlns="http://www.w3.org/2000/svg">
<path d="M35.6836 31.3085H28.0486V29.2131C28.0486 28.8092 27.7755 28.4814 27.4389 28.4814H26.8706V2.36196C26.8706 1.17963 26.0695 0.216797 25.0829 0.216797C24.0964 0.216797 23.2952 1.17963 23.2952 2.36196V28.4829H22.7282C22.3916 28.4829 22.1184 28.8107 22.1184 29.2145V31.3099H19.3991L20.9795 15.1671C21.0002 14.9593 20.9453 14.7515 20.8295 14.5949C20.7124 14.4398 20.5478 14.3506 20.3734 14.3506H19.8052V13.6687C19.8052 7.8112 15.8334 3.04385 10.952 3.04385C6.06928 3.04385 2.09754 7.80973 2.09754 13.6687V14.3506H1.52928C1.35489 14.3506 1.19027 14.4398 1.0732 14.5964C0.957354 14.7515 0.902479 14.9608 0.924429 15.1685L3.2804 39.1941C3.31577 39.5613 3.57551 39.8394 3.88525 39.8394H15.6627H18.0187H20.3734H22.7294H25.0854H27.4413H29.7973H32.1533H34.5093C34.8458 39.8394 35.119 39.5116 35.119 39.1077V35.6003H35.6872C36.0238 35.6003 36.297 35.2725 36.297 34.8686V32.0416C36.2933 31.6362 36.0202 31.3085 35.6836 31.3085ZM35.0739 34.1355H34.5056H32.1496H29.7937H27.4377H25.0817H22.7282H20.3722H18.0174H15.6615H15.0944V32.7718H18.7125H22.7282H27.4389H35.0739V34.1355V34.1355ZM24.5159 2.36196C24.5159 1.9859 24.7707 1.68007 25.0841 1.68007C25.3975 1.68007 25.6524 1.9859 25.6524 2.36196V28.4829H24.5159V2.36196V2.36196ZM23.3379 29.9462H23.9062H26.2621H26.8304V31.3099H23.3379V29.9462ZM3.31699 13.6687C3.31699 8.61746 6.74242 4.50712 10.952 4.50712C15.1603 4.50712 18.5857 8.61746 18.5857 13.6687V14.3506H3.31699V13.6687ZM2.21582 15.8139H2.70726H19.1954H19.6869L18.1711 31.3099H14.4847C14.1481 31.3099 13.875 31.6377 13.875 32.0416V34.8686C13.875 35.2725 14.1481 35.6003 14.4847 35.6003H15.053V38.3761H4.42669L2.21582 15.8139ZM16.2724 35.5988H17.4089V38.3746H16.2724V35.5988ZM18.6284 35.5988H19.7637V38.3746H18.6284V35.5988ZM20.9819 35.5988H22.1184V38.3746H20.9819V35.5988ZM23.3379 35.5988H24.4744V38.3746H23.3379V35.5988ZM25.6939 35.5988H26.8304V38.3746H25.6939V35.5988ZM28.0486 35.5988H29.1851V38.3746H28.0486V35.5988ZM30.4046 35.5988H31.5411V38.3746H30.4046V35.5988ZM33.8959 38.3761H32.7594V35.6003H33.8959V38.3761Z" fill="#F7F6F2"/>
</svg>
