<svg width="21" height="23" viewBox="0 0 21 23" fill="none" xmlns="http://www.w3.org/2000/svg">
<path opacity="0.6" d="M10.4872 0.307739C12.4375 0.307739 14.0314 1.76304 14.1391 3.59673L14.1448 3.79459H20.0533C20.5195 3.79459 20.8974 4.15485 20.8974 4.59925C20.8974 5.00662 20.5798 5.34328 20.1679 5.39655L20.0533 5.4039H19.1575L17.7168 19.3719C17.5675 20.8193 16.3376 21.9369 14.8343 22.0276L14.6367 22.0335H6.33761C4.81198 22.0335 3.52484 20.9762 3.28307 19.5588L3.25754 19.3719L1.8157 5.4039H0.920979C0.493652 5.4039 0.140503 5.10119 0.0846135 4.70843L0.0769043 4.59925C0.0769043 4.19187 0.394445 3.85522 0.806444 3.80194L0.920979 3.79459H6.8295C6.8295 1.86885 8.46712 0.307739 10.4872 0.307739ZM17.4615 5.4039H3.51173L4.93757 19.2144C5.00369 19.8551 5.53563 20.3537 6.19459 20.4173L6.33761 20.4242H14.6367C15.3121 20.4242 15.8846 19.9683 16.0156 19.3494L16.0368 19.2144L17.4615 5.4039ZM12.4567 8.35431C12.884 8.35431 13.2372 8.65703 13.2931 9.04978L13.3007 9.15897V16.6691C13.3007 17.1135 12.9228 17.4738 12.4567 17.4738C12.0293 17.4738 11.6762 17.171 11.6202 16.7783L11.6126 16.6691V9.15897C11.6126 8.71458 11.9905 8.35431 12.4567 8.35431ZM8.51765 8.35431C8.94498 8.35431 9.29814 8.65703 9.35407 9.04978L9.36173 9.15897V16.6691C9.36173 17.1135 8.98381 17.4738 8.51765 17.4738C8.09033 17.4738 7.73718 17.171 7.68129 16.7783L7.67358 16.6691V9.15897C7.67358 8.71458 8.05149 8.35431 8.51765 8.35431ZM10.4872 1.91705C9.45379 1.91705 8.60634 2.6757 8.52418 3.6406L8.51765 3.79459H12.4567C12.4567 2.75765 11.5749 1.91705 10.4872 1.91705Z" fill="#212121"/>
</svg>
