<svg xmlns="http://www.w3.org/2000/svg" viewBox="0 0 20.34 23.39"><path d="M15.43,5.88a2.17,2.17,0,0,0,2.37,1.9,2.18,2.18,0,0,0,2.38-1.9A2.18,2.18,0,0,0,17.8,4,2.17,2.17,0,0,0,15.43,5.88ZM17.8,4.71a1.34,1.34,0,0,1,1.46,1.17A1.33,1.33,0,0,1,17.8,7.05a1.34,1.34,0,0,1-1.46-1.17A1.35,1.35,0,0,1,17.8,4.71Z" style="fill:#3323c4"/><path d="M20.19,12.1c-.1-.22-1.71-3.13-2.34-3.52a18.62,18.62,0,0,0-2.74-1L15,4.94l2.3-3.57,0,0a.85.85,0,0,0-.11-1,1.15,1.15,0,0,0-.9-.37A1.54,1.54,0,0,0,15,.64a26,26,0,0,0-2.78,3.77c-.08.33-.2,1.23-.31,2.11-.09.68-.18,1.38-.22,1.61s-1.74,3-3.25,5.27l-3.8,3.54C4.24,17.34.53,20.82.32,21a.86.86,0,0,0-.2,1.09,1.29,1.29,0,0,0,1.12.53,1.75,1.75,0,0,0,1-.3c.25-.17,5.72-4.14,5.95-4.3l3.19-2.19,4.56,2c0,1.11-.09,4.46-.08,4.63,0,.51.55.87,1.23.87a1.37,1.37,0,0,0,1.4-1c.19-1.08.78-4.64.77-4.9a2,2,0,0,0-.46-1.08,1,1,0,0,0,.52-.24,18.53,18.53,0,0,0,1-3A1.78,1.78,0,0,0,20.19,12.1Zm-.8,1a24.75,24.75,0,0,1-.81,2.69v0a.41.41,0,0,1-.27-.11.06.06,0,0,1,0-.09,14.33,14.33,0,0,0,0-2.61,14,14,0,0,0-1.29-2.33.52.52,0,0,0-.39-.2.53.53,0,0,0-.41.17L14,13.32a.31.31,0,0,0-.06.26l.09.47a.42.42,0,0,0,.16.22c.33.22,3.24,2.17,3.53,2.33a1.36,1.36,0,0,1,.61.95c0,.23-.47,3.06-.76,4.76a.49.49,0,0,1-.5.35s-.3,0-.31-.17.05-3,.08-4.81a.33.33,0,0,0-.23-.32L11.53,15.1a.54.54,0,0,0-.22,0,.53.53,0,0,0-.3.09L7.57,17.51,1.64,21.8a.7.7,0,0,1-.4.13.37.37,0,0,1-.3-.12c-.07-.11,0-.25.1-.32S3.71,19,5.36,17.42l3.83-3.57.05-.07a61.89,61.89,0,0,0,3.37-5.52c.05-.26.14-.91.23-1.66s.23-1.75.3-2A27.36,27.36,0,0,1,15.8,1a.61.61,0,0,1,.47-.29.23.23,0,0,1,.16.06.31.31,0,0,1,0,.27L14.08,4.69a.26.26,0,0,0-.05.19l.18,3a.39.39,0,0,0,.3.32,22.78,22.78,0,0,1,2.77,1,20.82,20.82,0,0,1,2,3.19A1.1,1.1,0,0,1,19.39,13.07ZM17.44,15.3a.78.78,0,0,0-.05.14l-2.47-1.65,0-.19,1.71-2.1A11.68,11.68,0,0,1,17.43,13,19.43,19.43,0,0,1,17.44,15.3Z" style="fill:#3323c4"/></svg>