<svg xmlns="http://www.w3.org/2000/svg" viewBox="0 0 20.34 23.39"><path d="M4.61,5.07h8.44A.36.36,0,0,0,13.32,5a.39.39,0,0,0,.11-.27.41.41,0,0,0-.11-.28.39.39,0,0,0-.27-.11H4.61a.38.38,0,0,0-.39.39A.39.39,0,0,0,4.33,5,.38.38,0,0,0,4.61,5.07Z" style="fill:#7660f8"/><path d="M4.61,7.41h8.44a.36.36,0,0,0,.27-.12A.39.39,0,0,0,13.43,7a.39.39,0,0,0-.11-.28.39.39,0,0,0-.27-.11H4.61a.41.41,0,0,0-.28.11A.39.39,0,0,0,4.22,7a.39.39,0,0,0,.11.27A.38.38,0,0,0,4.61,7.41Z" style="fill:#7660f8"/><path d="M4.61,9.75h8.44a.36.36,0,0,0,.27-.12.39.39,0,0,0,.11-.27.39.39,0,0,0-.11-.28A.39.39,0,0,0,13.05,9H4.61a.41.41,0,0,0-.28.11.39.39,0,0,0-.11.28.39.39,0,0,0,.11.27A.38.38,0,0,0,4.61,9.75Z" style="fill:#7660f8"/><path d="M4.61,12.09h8.44a.4.4,0,0,0,.27-.12.39.39,0,0,0,.11-.27.39.39,0,0,0-.11-.28.39.39,0,0,0-.27-.11H4.61a.41.41,0,0,0-.28.11.39.39,0,0,0-.11.28.39.39,0,0,0,.11.27A.42.42,0,0,0,4.61,12.09Z" style="fill:#7660f8"/><path d="M4.61,14.42H7.68A.39.39,0,0,0,8,14.31.39.39,0,0,0,8.06,14,.39.39,0,0,0,8,13.76a.4.4,0,0,0-.27-.12H4.61a.42.42,0,0,0-.28.12.39.39,0,0,0-.11.27.39.39,0,0,0,.11.28A.41.41,0,0,0,4.61,14.42Z" style="fill:#7660f8"/><path d="M19.77,9.21a1.11,1.11,0,0,0-.87-.12,1.12,1.12,0,0,0-.7.54l-.93,1.6V1.56a.43.43,0,0,0-.11-.28.39.39,0,0,0-.27-.11H14A16.29,16.29,0,0,0,12.78,0l-.11,0H1.54a.41.41,0,0,0-.28.11.43.43,0,0,0-.11.28V1.61a1.57,1.57,0,0,0-.83.55,1.58,1.58,0,0,0-.32,1,1.55,1.55,0,0,0,.32,1,1.53,1.53,0,0,0,.83.56v.88a1.51,1.51,0,0,0-.83.55A1.58,1.58,0,0,0,0,7,1.55,1.55,0,0,0,.32,8a1.53,1.53,0,0,0,.83.56v.88A1.51,1.51,0,0,0,.32,10a1.59,1.59,0,0,0,0,1.91,1.59,1.59,0,0,0,.83.56v.48a1.59,1.59,0,0,0-.83.56,1.59,1.59,0,0,0,0,1.91,1.51,1.51,0,0,0,.83.55v2.39a.39.39,0,0,0,.11.28.41.41,0,0,0,.28.11h.38v1.17a.39.39,0,0,0,.11.28.39.39,0,0,0,.27.11h9.76l-.27.46a.28.28,0,0,0,0,.13h0l-.3,2.06a.36.36,0,0,0,0,.23.41.41,0,0,0,.15.17.34.34,0,0,0,.22.05.32.32,0,0,0,.21-.08L13.68,22c.11-.08.16-.13.15-.2l.89-1.55h2.17a.39.39,0,0,0,.27-.11.39.39,0,0,0,.11-.28v-4l2.91-5a1.18,1.18,0,0,0-.41-1.6Zm-.68.63a.45.45,0,0,1,.23,0,.46.46,0,0,1,.18.13.44.44,0,0,1,.07.22.36.36,0,0,1-.05.22l-.19.33-.67-.39.2-.34a.35.35,0,0,1,.1-.11ZM13.31,21.18l-.66-.39,5-8.75.67.4ZM13.05,1.33l1.38,1.4H13.05Zm5,10,.2-.34.66.4-.2.33ZM16.5,2V12.48s0,0,0,.07l-.77,1.34V3.12a.4.4,0,0,0,0-.15.38.38,0,0,0-.09-.13h0L14.74,2ZM1.92.78H12.28V3.12a.39.39,0,0,0,.11.27.38.38,0,0,0,.28.12H15V15.22l-1.56,2.71H1.92v-2a1.45,1.45,0,0,0,.7-.4,1.56,1.56,0,0,0,.4-.72.37.37,0,0,0,0-.29.41.41,0,0,0-.23-.18.38.38,0,0,0-.15,0l-.14.05a.36.36,0,0,0-.18.24,1,1,0,0,1-.13.28.74.74,0,0,1-.23.2V12.43a1.47,1.47,0,0,0,.7-.41,1.53,1.53,0,0,0,.4-.71A.39.39,0,0,0,3,11a.41.41,0,0,0-.23-.18.36.36,0,0,0-.29,0,.39.39,0,0,0-.18.24.9.9,0,0,1-.13.28.74.74,0,0,1-.23.2V8.53a1.47,1.47,0,0,0,.7-.41A1.53,1.53,0,0,0,3,7.41a.39.39,0,0,0,0-.3.41.41,0,0,0-.23-.18.41.41,0,0,0-.29,0,.39.39,0,0,0-.18.24.9.9,0,0,1-.13.28.74.74,0,0,1-.23.2V4.63a1.47,1.47,0,0,0,.7-.41A1.53,1.53,0,0,0,3,3.51a.39.39,0,0,0,0-.3A.41.41,0,0,0,2.75,3a.37.37,0,0,0-.29.05.35.35,0,0,0-.18.23.9.9,0,0,1-.13.28.74.74,0,0,1-.23.2ZM.77,3.12a.76.76,0,0,1,.1-.39.86.86,0,0,1,.28-.29V3.79a.83.83,0,0,1-.28-.28A.76.76,0,0,1,.77,3.12ZM.77,7a.76.76,0,0,1,.1-.39.86.86,0,0,1,.28-.29V7.69a.93.93,0,0,1-.28-.28A.78.78,0,0,1,.77,7Zm0,3.9a.73.73,0,0,1,.1-.39.86.86,0,0,1,.28-.29v1.35a.93.93,0,0,1-.28-.28A.78.78,0,0,1,.77,10.92Zm0,3.5A.72.72,0,0,1,.87,14a.86.86,0,0,1,.28-.29V15.1a.86.86,0,0,1-.28-.29A.73.73,0,0,1,.77,14.42Zm1.92,5.07v-.78H13l-.45.78Zm9.73,2.06.35.21-.43.34Zm4.08-2.06H15.17l1.33-2.3Z" style="fill:#7660f8"/></svg>