<svg xmlns="http://www.w3.org/2000/svg" viewBox="0 0 20.34 23.39"><path d="M20,18.35H15.6V17.12a.4.4,0,0,0-.35-.43h-.33V1.27a1.17,1.17,0,0,0-1-1.27,1.18,1.18,0,0,0-1,1.27V16.69h-.32a.4.4,0,0,0-.35.43v1.24H10.62l.91-9.53a.48.48,0,0,0-.08-.34.34.34,0,0,0-.27-.15h-.32v-.4c0-3.46-2.29-6.27-5.09-6.27S.68,4.48.68,7.94v.4H.35a.34.34,0,0,0-.26.15A.49.49,0,0,0,0,8.83L1.36,23a.38.38,0,0,0,.35.38h17.6a.39.39,0,0,0,.35-.43V20.89H20a.4.4,0,0,0,.35-.43V18.79A.41.41,0,0,0,20,18.35ZM19.64,20H8.15v-.8H19.64V20ZM13.57,1.27a.37.37,0,0,1,.32-.41.38.38,0,0,1,.33.41V16.69h-.65V1.27Zm-.68,16.28h2v.81h-2ZM1.38,7.94c0-3,2-5.41,4.39-5.41S10.16,5,10.16,7.94v.4H1.38ZM.75,9.21h10l-.87,9.15H7.8a.4.4,0,0,0-.35.43v1.67a.4.4,0,0,0,.35.43h.33v1.64H2ZM8.83,20.89h.65v1.64H8.83Zm1.35,0h.65v1.64h-.65Zm1.35,0h.66v1.64h-.66Zm1.36,0h.65v1.64h-.65Zm1.35,0h.66v1.64h-.66Zm1.36,0h.65v1.64H15.6Zm1.35,0h.66v1.64H17Zm2,1.64h-.65V20.89H19Z" style="fill:#f93283"/></svg>