<svg xmlns="http://www.w3.org/2000/svg" viewBox="0 0 20.34 23.39"><path d="M.87,23.39h18.6a1,1,0,0,0,.87-1V20.65a1,1,0,0,0-.87-1h-.14V19.1a1.32,1.32,0,0,0-1.2-1.4h-.51a2.33,2.33,0,0,0-1.61-2L17.89,9l.19,0A1.47,1.47,0,0,0,19.41,7.5a1.46,1.46,0,0,0-1.33-1.56,1.24,1.24,0,0,0-.81.33l-3.78-4a1.74,1.74,0,0,0,.16-.73A1.43,1.43,0,0,0,12.35,0a1.3,1.3,0,0,0-1.18.9,3.72,3.72,0,0,0-2-.59C7,.31,5.15,2.25,5,4.82a.73.73,0,0,0,.15.5.49.49,0,0,0,.4.21H7.19a2.14,2.14,0,0,0,2,2.06,2.14,2.14,0,0,0,2-2.06h1.67a.49.49,0,0,0,.41-.21.73.73,0,0,0,.15-.5,5.65,5.65,0,0,0-.48-1.91,1.54,1.54,0,0,0,.3-.22l3.76,4a1.76,1.76,0,0,0-.2.81,1.63,1.63,0,0,0,.69,1.37l-1.91,6.74a2.23,2.23,0,0,0-2,2.09H13a1.31,1.31,0,0,0-1.19,1.4v.53h-.68s0,0,0-.05v-2a.43.43,0,0,0,0,0h.33A.57.57,0,0,0,12,16.9v-2a.57.57,0,0,0-.52-.61H1.15a.57.57,0,0,0-.51.61v2a.57.57,0,0,0,.51.61h.33a.43.43,0,0,0,0,0v2s0,0,0,.05H.87a1,1,0,0,0-.87,1v1.72A1,1,0,0,0,.87,23.39ZM9.16,7a1.6,1.6,0,0,1-1.48-1.5h3A1.61,1.61,0,0,1,9.16,7Zm3.73-2.16a.1.1,0,0,1,0,.08.09.09,0,0,1-.06,0H5.51a.09.09,0,0,1,0,0,.15.15,0,0,1,0-.08,4,4,0,0,1,3.73-4A4,4,0,0,1,12.89,4.87Zm-.25-2.43a4.63,4.63,0,0,0-1.07-1.25.85.85,0,0,1,.78-.63.91.91,0,0,1,.83,1A1,1,0,0,1,12.64,2.44Zm4.47,4V6.39h0Zm.12,1.06a.87.87,0,1,1,1.71,0,.87.87,0,1,1-1.71,0Zm-1.65,8.67a1.69,1.69,0,0,1,1.56,1.53H14A1.7,1.7,0,0,1,15.58,16.17ZM12.3,19.1a.78.78,0,0,1,.72-.84h5.11a.78.78,0,0,1,.72.84v.53H12.3ZM1.15,17a0,0,0,0,1,0-.05v-2a0,0,0,0,1,0-.05H11.48a0,0,0,0,1,0,.05v2a0,0,0,0,1,0,.05Zm9.53.61v2a.07.07,0,0,1,0,.05H2a.07.07,0,0,1,0-.05v-2a0,0,0,0,1,0,0h8.65A0,0,0,0,1,10.68,17.56ZM.48,20.65a.43.43,0,0,1,.39-.47h18.6a.43.43,0,0,1,.39.47v1.72a.43.43,0,0,1-.39.46H.87a.42.42,0,0,1-.39-.46Z" style="fill:#eb979a"/><path d="M9.4,9.55v-1a.24.24,0,1,0-.47,0v1a.24.24,0,1,0,.47,0Z" style="fill:#eb979a"/><path d="M11,9.23a.17.17,0,0,0,.12,0,.29.29,0,0,0,.09-.38L10.78,8a.21.21,0,0,0-.32-.1.3.3,0,0,0-.09.38l.41.83A.22.22,0,0,0,11,9.23Z" style="fill:#eb979a"/><path d="M12.19,7.61a.2.2,0,0,0,.11,0,.23.23,0,0,0,.21-.14.3.3,0,0,0-.09-.38l-.7-.48a.23.23,0,0,0-.33.11.32.32,0,0,0,.09.38Z" style="fill:#eb979a"/><path d="M6.06,7.61l.7-.48a.32.32,0,0,0,.09-.38.23.23,0,0,0-.33-.11l-.7.48a.3.3,0,0,0-.09.38.23.23,0,0,0,.21.14Z" style="fill:#eb979a"/><path d="M7.26,9.23a.22.22,0,0,0,.2-.14l.41-.83a.3.3,0,0,0-.09-.38.21.21,0,0,0-.32.1l-.41.83a.32.32,0,0,0,.09.38A.19.19,0,0,0,7.26,9.23Z" style="fill:#eb979a"/></svg>