<svg width="37" height="44" viewBox="0 0 37 44" fill="none" xmlns="http://www.w3.org/2000/svg">
<path d="M27.5203 10.9814C27.5203 12.9183 29.4069 14.4941 31.7251 14.4941C34.0434 14.4941 35.93 12.9183 35.93 10.9814C35.93 9.04501 34.0434 7.46985 31.7251 7.46985C29.4069 7.46985 27.5203 9.04501 27.5203 10.9814ZM31.7251 8.8235C33.1498 8.8235 34.3094 9.79137 34.3094 10.9814C34.3094 12.172 33.1498 13.1404 31.7251 13.1404C30.3004 13.1404 29.1409 12.172 29.1409 10.9814C29.1409 9.79137 30.3004 8.8235 31.7251 8.8235Z" fill="#F7F6F2"/>
<path d="M35.949 22.4696C35.7766 22.0592 32.9213 16.6956 31.8038 15.9591C31.0317 15.4503 28.2243 14.5353 26.9558 14.136L26.6641 9.24563L30.7525 2.65087C30.7687 2.62441 30.7835 2.59734 30.7953 2.56904C31.0818 1.90574 31.0163 1.27506 30.6104 0.793287C30.2487 0.362579 29.6652 0.115845 29.0111 0.115845C28.1204 0.115845 27.2799 0.575471 26.7974 1.29906C25.7086 2.65887 22.1358 7.18069 21.8772 8.2673C21.7343 8.86476 21.528 10.5433 21.3284 12.1671C21.1744 13.418 21.0153 14.7113 20.9277 15.1303C20.7641 15.7696 17.8506 20.612 15.1765 24.8711L8.46256 31.4117C7.71411 32.1439 1.13865 38.5818 0.765162 38.9891C0.169937 39.6395 0.0417586 40.3723 0.413037 40.9999C0.772529 41.6072 1.53277 41.985 2.39761 41.985C3.02304 41.985 3.63152 41.7887 4.15603 41.4177C4.58771 41.1119 14.2852 33.7837 14.6822 33.4834L20.3287 29.4317L28.4122 33.1659C28.3731 35.2173 28.2567 41.4035 28.2737 41.7247C28.3252 42.6544 29.2409 43.3294 30.4498 43.3294C31.4627 43.3294 32.6185 42.799 32.9301 41.5623C33.2513 39.5601 34.2974 32.9906 34.2841 32.5094C34.2745 32.1667 34.0904 31.2763 33.4753 30.5011C33.8421 30.442 34.1596 30.29 34.3924 30.0593C34.8926 29.5627 36.1324 24.5118 36.1412 24.4644C36.2399 23.9395 36.2937 23.2904 35.949 22.4696ZM34.5405 24.2564C34.4034 24.9899 33.3773 28.6373 33.0966 29.2373C33.104 29.22 33.1121 29.2009 33.1194 29.1757C32.9493 29.1757 32.7334 29.084 32.6384 28.9714C32.5913 28.9148 32.5846 28.8699 32.6148 28.8016C32.8513 28.2614 32.7216 24.302 32.6738 23.9814C32.5839 23.3821 31.2012 21.0347 30.3849 19.6891C30.2538 19.4731 29.9945 19.3322 29.7057 19.3187C29.4133 19.3051 29.1407 19.4233 28.9831 19.6257L25.0147 24.7253C24.9049 24.8668 24.8614 25.0378 24.8946 25.2046L25.0655 26.0654C25.0964 26.2248 25.1959 26.37 25.344 26.474C25.9289 26.8837 31.0752 30.4832 31.6004 30.7872C32.3356 31.2136 32.6561 32.2018 32.6657 32.5297C32.6531 32.9703 31.8369 38.1941 31.336 41.3328C31.1842 41.9296 30.6214 41.9764 30.452 41.9764C30.4299 41.9764 29.912 41.9727 29.8951 41.6656C29.8833 41.3635 29.9768 36.187 30.0424 32.7814C30.0468 32.5316 29.8862 32.2996 29.624 32.1784L20.6219 28.0202C20.4989 27.9636 20.3641 27.9353 20.23 27.9353C20.0407 27.9353 19.8521 27.9907 19.7018 28.099L13.6126 32.4688C10.8059 34.5885 3.45178 40.1434 3.10996 40.3852C2.8816 40.547 2.63555 40.6319 2.39908 40.6319C2.15893 40.6319 1.95045 40.5415 1.86721 40.4012C1.7464 40.1975 1.93204 39.9447 2.05359 39.8124C2.31584 39.5256 6.76824 35.1576 9.695 32.2922L16.4672 25.695C16.5069 25.6568 16.5416 25.6144 16.5696 25.5688C17.9132 23.4301 22.3133 16.3738 22.524 15.3685C22.6227 14.8984 22.77 13.6973 22.941 12.3061C23.1273 10.7882 23.3395 9.06781 23.4669 8.53311C23.6106 7.95535 25.9583 4.78411 28.1786 2.00727C28.4041 1.67132 28.7157 1.47073 29.0118 1.47073C29.0818 1.47073 29.2107 1.48365 29.2851 1.57225C29.3706 1.67439 29.3713 1.85898 29.2873 2.07249L25.1259 8.786C25.0603 8.89245 25.0294 9.0112 25.036 9.13118L25.3646 14.6492C25.3808 14.9199 25.5893 15.1568 25.8942 15.2509C27.6202 15.7819 30.2833 16.6827 30.7953 17.0193C31.4693 17.5201 34.1309 22.2284 34.4211 22.9194C34.6333 23.4252 34.6222 23.8196 34.5405 24.2564ZM31.0745 28.3808C31.0391 28.4681 31.0133 28.5561 30.9971 28.6441C29.7382 27.7765 27.9584 26.5373 26.614 25.5978L26.5432 25.2434L29.568 21.3571C30.3201 22.6413 31.0015 23.8811 31.0649 24.1494C31.1386 24.6404 31.1629 27.8781 31.0745 28.3808Z" fill="#F7F6F2"/>
</svg>
