<svg width="37" height="41" viewBox="0 0 37 41" fill="none" xmlns="http://www.w3.org/2000/svg">
<path d="M1.97416 40.4108H34.6267C35.4732 40.4108 36.1617 39.6248 36.1617 38.659V35.7221C36.1617 34.7563 35.4732 33.9703 34.6267 33.9703H34.3814V33.0657C34.3814 31.7485 33.4423 30.6769 32.2883 30.6769H31.3836C31.1795 28.9534 30.03 27.558 28.5619 27.1925L31.8658 15.8699C31.9735 15.8873 32.0806 15.9075 32.1924 15.9075C33.482 15.9075 34.5313 14.71 34.5313 13.2381C34.5313 11.7663 33.482 10.5688 32.1924 10.5688C31.657 10.5688 31.1692 10.7833 30.7746 11.13L24.1297 4.26849C24.3095 3.89733 24.4179 3.47486 24.4179 3.0203C24.4179 1.57643 23.3882 0.401611 22.1231 0.401611C21.1997 0.401611 20.4158 1.03428 20.0547 1.93468C19.0058 1.29357 17.8074 0.926969 16.5295 0.926969C12.6572 0.926969 9.48429 4.24551 9.14906 8.64649C9.12507 8.96096 9.21883 9.27418 9.40524 9.50622C9.59002 9.73577 9.85221 9.86765 10.1247 9.86765H13.0621C13.2699 11.8461 14.7442 13.3859 16.5327 13.3859C18.3213 13.3859 19.7961 11.8461 20.0039 9.86765H22.9412C23.2138 9.86765 23.4765 9.73577 23.6613 9.5056C23.8477 9.27324 23.9404 8.96002 23.9164 8.64618C23.8266 7.46487 23.5265 6.36567 23.0686 5.38355C23.2604 5.28417 23.4388 5.16034 23.5981 5.00789L30.2111 11.8365C29.9885 12.245 29.854 12.7226 29.854 13.2381C29.854 14.2442 30.3498 15.1115 31.0718 15.5664L27.7055 27.1023C25.9246 27.1561 24.4412 28.7 24.2063 30.6769H23.3015C22.1476 30.6769 21.2084 31.7485 21.2084 33.0657V33.9703H20.0273C20.0291 33.9437 20.0343 33.9183 20.0343 33.8913V30.4296C20.0343 30.4015 20.029 30.3751 20.027 30.3475H20.5968C21.0983 30.3475 21.5066 29.8819 21.5066 29.3096V25.8482C21.5066 25.2759 21.0983 24.8103 20.5968 24.8103H2.46364C1.96216 24.8103 1.55444 25.2759 1.55444 25.8482V29.3096C1.55444 29.8819 1.96216 30.3475 2.46364 30.3475H3.034C3.03206 30.3751 3.02671 30.4015 3.02671 30.4296V33.8913C3.02671 33.9183 3.03189 33.9437 3.03369 33.9703H1.97416C1.12765 33.9703 0.439209 34.7563 0.439209 35.7221V38.659C0.439209 39.6248 1.12765 40.4108 1.97416 40.4108ZM16.5327 12.4304C15.2083 12.4304 14.126 11.3149 13.9231 9.86765H19.1429C18.94 11.315 17.8572 12.4304 16.5327 12.4304ZM23.0824 8.72923C23.0873 8.79486 23.0606 8.83934 23.0437 8.86018C23.0247 8.88382 22.9914 8.91212 22.9413 8.91212H10.1248C10.0746 8.91212 10.0408 8.88382 10.0223 8.86018C10.0054 8.83934 9.97814 8.79486 9.98304 8.72892C10.2807 4.82593 13.0949 1.8825 16.5295 1.8825C19.9684 1.8825 22.7854 4.82592 23.0824 8.72923ZM22.636 4.57304C22.1304 3.73396 21.4973 3.01031 20.7661 2.43282C20.9747 1.80606 21.5016 1.35714 22.1231 1.35714C22.9265 1.35714 23.5806 2.10334 23.5806 3.0203C23.5806 3.73077 23.1867 4.33544 22.636 4.57304ZM30.497 11.4104V11.3314H30.5609C30.5383 11.3566 30.5186 11.3842 30.497 11.4104ZM30.6912 13.2381C30.6912 12.2932 31.3644 11.5243 32.1924 11.5243C33.0204 11.5243 33.6941 12.2932 33.6941 13.2381C33.6941 14.1831 33.0204 14.952 32.1924 14.952C31.3644 14.952 30.6912 14.1831 30.6912 13.2381ZM27.8007 28.0523C29.1595 28.0523 30.308 29.1917 30.5386 30.6769H25.0513C25.2824 29.1917 26.4363 28.0523 27.8007 28.0523ZM22.0457 33.0657C22.0457 32.2754 22.6093 31.6324 23.3016 31.6324C26.0922 31.6324 29.5007 31.6324 32.2883 31.6324C32.9806 31.6324 33.5442 32.2754 33.5442 33.0657V33.9703H22.0457V33.0657ZM2.46364 29.392C2.42439 29.392 2.39169 29.3543 2.39169 29.3096V25.8482C2.39169 25.8013 2.42275 25.7658 2.46364 25.7658H20.5969C20.6383 25.7658 20.6694 25.8013 20.6694 25.8482V29.3096C20.6694 29.3543 20.6361 29.392 20.5969 29.392C13.9581 29.392 9.07957 29.392 2.46364 29.392ZM19.1971 30.4296V33.8912C19.1971 33.9329 19.167 33.9659 19.1311 33.9703H3.92953C3.89441 33.9659 3.86395 33.9323 3.86395 33.8912V30.4296C3.86395 30.3827 3.89502 30.3475 3.93591 30.3475H19.1246C19.166 30.3475 19.1971 30.3827 19.1971 30.4296ZM1.27645 35.7221C1.27645 35.2829 1.58933 34.9258 1.97416 34.9258C33.0985 34.9258 34.027 34.9258 34.6267 34.9258C35.0115 34.9258 35.3244 35.2829 35.3244 35.7221V38.659C35.3244 39.0982 35.0115 39.4552 34.6267 39.4552H1.97416C1.58279 39.4552 1.27645 39.1056 1.27645 38.659V35.7221Z" fill="#F7F6F2"/>
<path d="M16.9514 16.7358V15.1044C16.9514 14.8402 16.7639 14.6259 16.5328 14.6259C16.3016 14.6259 16.1141 14.8402 16.1141 15.1044V16.7358C16.1141 17 16.3016 17.2143 16.5328 17.2143C16.7639 17.2143 16.9514 17 16.9514 16.7358Z" fill="#F7F6F2"/>
<path d="M19.7298 16.1891C19.8007 16.1891 19.8726 16.1685 19.9386 16.1249C20.1386 15.9928 20.2073 15.7002 20.0918 15.4712L19.3782 14.0586C19.2627 13.8299 19.0076 13.7511 18.8064 13.8835C18.6064 14.0156 18.5377 14.3082 18.6533 14.5372L19.3668 15.9498C19.4442 16.1034 19.5848 16.1891 19.7298 16.1891Z" fill="#F7F6F2"/>
<path d="M21.8395 13.4103C21.9055 13.4539 21.9774 13.4745 22.0483 13.4745C22.1933 13.4745 22.3339 13.3888 22.4113 13.2352C22.5269 13.0062 22.4582 12.7136 22.2581 12.5815L21.0224 11.7659C20.8213 11.6328 20.5657 11.7123 20.4506 11.941C20.3351 12.17 20.4038 12.4625 20.6038 12.5946L21.8395 13.4103Z" fill="#F7F6F2"/>
<path d="M11.0755 13.4103L12.3112 12.5946C12.5113 12.4625 12.58 12.1699 12.4644 11.941C12.3488 11.7123 12.0937 11.6328 11.8926 11.7659L10.6569 12.5815C10.4569 12.7136 10.3882 13.0062 10.5037 13.2352C10.5811 13.3888 10.7218 13.4745 10.8668 13.4745C10.9376 13.4745 11.0096 13.4539 11.0755 13.4103Z" fill="#F7F6F2"/>
<path d="M13.1855 16.1891C13.3305 16.1891 13.4711 16.1034 13.5485 15.9498L14.262 14.5372C14.3776 14.3082 14.3089 14.0156 14.1089 13.8835C13.9077 13.7511 13.6521 13.8299 13.5371 14.0586L12.8236 15.4712C12.708 15.7002 12.7767 15.9928 12.9767 16.1249C13.0427 16.1685 13.1146 16.1891 13.1855 16.1891Z" fill="#F7F6F2"/>
</svg>
