<svg width="36" height="41" viewBox="0 0 36 41" fill="none" xmlns="http://www.w3.org/2000/svg">
<path d="M8.16062 8.78039H23.0837C23.2636 8.78039 23.4361 8.70969 23.5633 8.58384C23.6905 8.45799 23.762 8.28729 23.762 8.10931C23.762 7.93133 23.6905 7.76064 23.5633 7.63479C23.4361 7.50894 23.2636 7.43823 23.0837 7.43823H8.16062C7.98072 7.43823 7.80818 7.50894 7.68098 7.63479C7.55377 7.76064 7.4823 7.93133 7.4823 8.10931C7.4823 8.28729 7.55377 8.45799 7.68098 8.58384C7.80818 8.70969 7.98072 8.78039 8.16062 8.78039Z" fill="#F7F6F2"/>
<path d="M8.16062 12.8069H23.0837C23.2636 12.8069 23.4361 12.7362 23.5633 12.6103C23.6905 12.4845 23.762 12.3138 23.762 12.1358C23.762 11.9578 23.6905 11.7871 23.5633 11.6613C23.4361 11.5354 23.2636 11.4647 23.0837 11.4647H8.16062C7.98072 11.4647 7.80818 11.5354 7.68098 11.6613C7.55377 11.7871 7.4823 11.9578 7.4823 12.1358C7.4823 12.3138 7.55377 12.4845 7.68098 12.6103C7.80818 12.7362 7.98072 12.8069 8.16062 12.8069Z" fill="#F7F6F2"/>
<path d="M8.16062 16.8332H23.0837C23.2636 16.8332 23.4361 16.7625 23.5633 16.6367C23.6905 16.5108 23.762 16.3402 23.762 16.1622C23.762 15.9842 23.6905 15.8135 23.5633 15.6876C23.4361 15.5618 23.2636 15.4911 23.0837 15.4911H8.16062C7.98072 15.4911 7.80818 15.5618 7.68098 15.6876C7.55377 15.8135 7.4823 15.9842 7.4823 16.1622C7.4823 16.3402 7.55377 16.5108 7.68098 16.6367C7.80818 16.7625 7.98072 16.8332 8.16062 16.8332Z" fill="#F7F6F2"/>
<path d="M8.16062 20.8599H23.0837C23.2636 20.8599 23.4361 20.7892 23.5633 20.6633C23.6905 20.5375 23.762 20.3668 23.762 20.1888C23.762 20.0108 23.6905 19.8401 23.5633 19.7143C23.4361 19.5884 23.2636 19.5177 23.0837 19.5177H8.16062C7.98072 19.5177 7.80818 19.5884 7.68098 19.7143C7.55377 19.8401 7.4823 20.0108 7.4823 20.1888C7.4823 20.3668 7.55377 20.5375 7.68098 20.6633C7.80818 20.7892 7.98072 20.8599 8.16062 20.8599Z" fill="#F7F6F2"/>
<path d="M8.16062 24.8863H13.5872C13.7671 24.8863 13.9396 24.8156 14.0668 24.6898C14.194 24.5639 14.2655 24.3933 14.2655 24.2153C14.2655 24.0373 14.194 23.8666 14.0668 23.7407C13.9396 23.6149 13.7671 23.5442 13.5872 23.5442H8.16062C7.98072 23.5442 7.80818 23.6149 7.68098 23.7407C7.55377 23.8666 7.4823 24.0373 7.4823 24.2153C7.4823 24.3933 7.55377 24.5639 7.68098 24.6898C7.80818 24.8156 7.98072 24.8863 8.16062 24.8863Z" fill="#F7F6F2"/>
<path d="M34.9657 15.9119C34.4999 15.6425 33.9451 15.5669 33.4231 15.7017C32.901 15.8365 32.4543 16.1707 32.1811 16.6309L30.5454 19.3919V2.74072C30.5454 2.56274 30.4739 2.39204 30.3467 2.26619C30.2195 2.14034 30.047 2.06964 29.8671 2.06964H24.7215C24.7215 2.06964 22.6833 0.0161317 22.6017 0.0852529C22.5381 0.0661458 22.472 0.0564224 22.4055 0.0563965H2.73421C2.55431 0.0563965 2.38178 0.127099 2.25457 0.252951C2.12736 0.378803 2.05589 0.549495 2.05589 0.727477V2.82569C1.47323 2.97429 0.95703 3.31028 0.588468 3.78082C0.219907 4.25136 0.0198975 4.82976 0.0198975 5.42504C0.0198975 6.02032 0.219907 6.59872 0.588468 7.06926C0.95703 7.5398 1.47323 7.87579 2.05589 8.02438V9.5365C1.47323 9.68509 0.95703 10.0211 0.588468 10.4916C0.219907 10.9622 0.0198975 11.5406 0.0198975 12.1358C0.0198975 12.7311 0.219907 13.3095 0.588468 13.7801C0.95703 14.2506 1.47323 14.5866 2.05589 14.7352V16.2473C1.47323 16.3959 0.95703 16.7319 0.588468 17.2024C0.219907 17.673 0.0198975 18.2514 0.0198975 18.8466C0.0198975 19.4419 0.219907 20.0203 0.588468 20.4909C0.95703 20.9614 1.47323 21.2974 2.05589 21.446V22.287C1.47323 22.4356 0.95703 22.7716 0.588468 23.2421C0.219907 23.7127 0.0198975 24.2911 0.0198975 24.8864C0.0198975 25.4816 0.219907 26.06 0.588468 26.5306C0.95703 27.0011 1.47323 27.3371 2.05589 27.4857V31.5972C2.05589 31.7751 2.12736 31.9458 2.25457 32.0717C2.38178 32.1975 2.55431 32.2682 2.73421 32.2682H3.41253V34.2815C3.41253 34.4595 3.484 34.6302 3.61121 34.756C3.73842 34.8819 3.91095 34.9526 4.09086 34.9526H21.328L20.8632 35.7372C20.8216 35.8076 20.7934 35.885 20.78 35.9655C20.7793 35.9693 20.7782 35.9726 20.7776 35.9766L20.776 35.9875V35.9901L20.2333 39.5501C20.2131 39.6828 20.2335 39.8183 20.2919 39.9394C20.3504 40.0604 20.4441 40.1613 20.5611 40.2291C20.678 40.2969 20.8129 40.3285 20.9481 40.3198C21.0834 40.3111 21.213 40.2625 21.32 40.1802L24.2053 37.964C24.3901 37.822 24.4804 37.7351 24.4661 37.6185L26.0452 34.9526H29.8671C30.047 34.9526 30.2195 34.8819 30.3467 34.756C30.4739 34.6302 30.5454 34.4595 30.5454 34.2815V27.3558L35.6922 18.6667C35.9644 18.2059 36.0408 17.6571 35.9046 17.1407C35.7685 16.6243 35.4308 16.1824 34.9657 15.9119V15.9119ZM33.7655 16.9995C33.8953 16.966 34.0322 16.9713 34.159 17.0148C34.2857 17.0583 34.3966 17.138 34.4776 17.2438C34.5586 17.3496 34.606 17.4768 34.6139 17.6093C34.6218 17.7418 34.5898 17.8737 34.522 17.9882L34.179 18.567L33.0089 17.8883L33.3519 17.3095C33.3967 17.2334 33.4563 17.1668 33.5273 17.1135C33.5983 17.0603 33.6792 17.0216 33.7655 16.9995ZM23.547 36.5155L22.3769 35.8369L31.2937 20.7835L32.4639 21.4621L23.547 36.5155ZM23.0839 2.34763L25.5161 4.75396H23.0839V2.34763ZM31.9797 19.6254L32.3226 19.0466L33.4931 19.7253L33.1501 20.3041L31.9797 19.6254ZM29.1887 3.4118V21.531C29.1888 21.5745 29.1931 21.6179 29.2016 21.6606L27.8321 23.9727V5.42504C27.8322 5.33705 27.8147 5.2499 27.7808 5.16859C27.7468 5.08728 27.6969 5.0134 27.634 4.95117L27.6334 4.9505L26.0781 3.4118H29.1887ZM3.41253 1.39856H21.7272V5.42504C21.7272 5.60302 21.7987 5.77371 21.9259 5.89956C22.0531 6.02542 22.2256 6.09612 22.4055 6.09612H26.4755V26.2629L23.7132 30.9261H3.41253V27.4858C3.88214 27.3662 4.31071 27.1241 4.65358 26.7848C4.99645 26.4456 5.24107 26.0215 5.36194 25.5569C5.40679 25.3845 5.38056 25.2015 5.28903 25.0483C5.1975 24.895 5.04817 24.7839 4.87389 24.7396C4.7876 24.7176 4.69777 24.7127 4.60955 24.725C4.52133 24.7374 4.43644 24.7669 4.35972 24.8117C4.20477 24.9023 4.09254 25.05 4.0477 25.2224C4.00275 25.395 3.92341 25.5569 3.81434 25.6987C3.70527 25.8405 3.56866 25.9593 3.41253 26.0482V21.4461C3.88214 21.3264 4.31071 21.0844 4.65358 20.7451C4.99645 20.4059 5.24107 19.9818 5.36194 19.5172C5.40679 19.3448 5.38056 19.1618 5.28903 19.0085C5.1975 18.8552 5.04817 18.7442 4.87389 18.6998C4.69961 18.6555 4.51466 18.6814 4.35972 18.772C4.20477 18.8625 4.09254 19.0103 4.0477 19.1827C4.00275 19.3552 3.92341 19.5172 3.81434 19.659C3.70527 19.8008 3.56866 19.9196 3.41253 20.0085V14.7353C3.88214 14.6156 4.31071 14.3736 4.65358 14.0343C4.99645 13.6951 5.24107 13.271 5.36194 12.8064C5.40679 12.634 5.38056 12.451 5.28903 12.2977C5.1975 12.1444 5.04817 12.0334 4.87389 11.989C4.69961 11.9447 4.51466 11.9706 4.35972 12.0612C4.20477 12.1517 4.09254 12.2995 4.0477 12.4719C4.00275 12.6444 3.92341 12.8064 3.81434 12.9482C3.70527 13.09 3.56866 13.2088 3.41253 13.2976V8.02447C3.88214 7.90483 4.31071 7.66276 4.65358 7.32351C4.99645 6.98425 5.24107 6.56022 5.36194 6.09562C5.40679 5.9232 5.38056 5.74022 5.28903 5.58693C5.1975 5.43364 5.04817 5.3226 4.87389 5.27824C4.69961 5.23388 4.51466 5.25983 4.35972 5.35038C4.20477 5.44093 4.09254 5.58866 4.0477 5.76108C4.00275 5.93364 3.92341 6.09557 3.81434 6.23737C3.70527 6.37917 3.56866 6.49799 3.41253 6.58685V1.39856ZM1.37757 5.42504C1.37789 5.18974 1.44072 4.95867 1.55978 4.75498C1.67883 4.55128 1.84992 4.38214 2.05589 4.26449V6.58559C1.84992 6.46794 1.67883 6.29879 1.55978 6.0951C1.44072 5.89141 1.37789 5.66033 1.37757 5.42504V5.42504ZM1.37757 12.1358C1.37789 11.9005 1.44072 11.6695 1.55978 11.4658C1.67883 11.2621 1.84992 11.0929 2.05589 10.9753V13.2964C1.84992 13.1787 1.67883 13.0096 1.55978 12.8059C1.44072 12.6022 1.37789 12.3711 1.37757 12.1358V12.1358ZM1.37757 18.8466C1.37789 18.6113 1.44072 18.3803 1.55978 18.1766C1.67883 17.9729 1.84992 17.8037 2.05589 17.6861V20.0072C1.84992 19.8895 1.67883 19.7204 1.55978 19.5167C1.44072 19.313 1.37789 19.0819 1.37757 18.8466V18.8466ZM1.37757 24.8864C1.37789 24.6511 1.44072 24.42 1.55978 24.2163C1.67883 24.0126 1.84992 23.8435 2.05589 23.7258V26.0469C1.84992 25.9293 1.67883 25.7601 1.55978 25.5564C1.44072 25.3527 1.37789 25.1217 1.37757 24.8864V24.8864ZM4.76918 33.6104V32.2682H22.9181L22.123 33.6104H4.76918ZM21.9698 37.1567L22.5819 37.5116L21.8273 38.0911L21.9698 37.1567ZM29.1887 33.6104H26.8401L29.1887 29.6459V33.6104Z" fill="#F7F6F2"/>
</svg>
